<svg xmlns="http://www.w3.org/2000/svg" viewBox="0 0 483.63 497"><defs><style>.cls-1{fill:#2443ba;}.cls-1,.cls-2,.cls-3,.cls-4{fill-rule:evenodd;}.cls-2{fill:#3255df;}.cls-3{fill:#00038d;}.cls-4{fill:#f3f4ff;}</style></defs><title>Asset 1</title><g id="Layer_2" data-name="Layer 2"><g id="Layer_1-2" data-name="Layer 1"><path class="cls-1" d="M476.94,455.77s-9.71,33.89-55.72,41.23c-28.13-38.76-128.15-174.95-128.15-174.95s49-39.23,51.26-41.23C428.83,393.19,476.94,455.77,476.94,455.77Z"/><path class="cls-1" d="M276.36,287.5a155.54,155.54,0,0,0,13.37,18.95c5.31-4.13,35.31-29.33,37.89-31.21-3.91-4.07-13.37-15.6-13.37-15.6C304,266.76,278.9,285.64,276.36,287.5Z"/><path class="cls-1" d="M253,273l12.26,14.48,54.6-41.23c-7.43-8.31-14.49-15.6-14.49-15.6Z"/><path class="cls-1" d="M220.64,198.35l-1.11,8.92,37.88,53.49,37.89-29-39-53.48-11.14,1.11Z"/><path class="cls-1" d="M192.78,188.33c1.37,1.1,12.26,15.6,12.26,15.6s21-19.69,23.4-21.18,30.09-17.83,30.09-17.83l-11.14-16.71S191.41,187.22,192.78,188.33Z"/><path class="cls-2" d="M222.87,16.72,224,32.32l5.58,1.11L234,18.94V6.69L229.56,0h-7.8L111.43,101.41l1.12,17.83,54.6,74.66h10l14.49-10L212.84,156,253,139.29l1.11-5.57-62.4-80.23,1.11-8.92Z"/><path class="cls-1" d="M203.93,12.26,120.35,88l-2.23-22.28,41.23-41.23L195,6.69h8.92Z"/><path class="cls-1" d="M147.09,29,111.43,61.29,107,60.17l1.11-13.37,20.06-18.94Z"/><path class="cls-3" d="M208.38,51.26l50.15,64.63,2.23-12.26s-32.83-53.86-42.35-55.71a51.43,51.43,0,0,0-7.8,1.11Z"/><path class="cls-3" d="M237.36,52.37v6.69l22.28,27.86H263v-7.8L244,53.49Z"/><path class="cls-2" d="M93.61,113.66s24.69,37.12,46.8,63.52a151.13,151.13,0,0,0,24.51,23.4c-2.14,16-3.38,19.11-5.57,32.32L117,260.76s-56.14-36.25-90.27-99.18c-.43-10.68-1.11-21.17-1.11-21.17l39-27.86Z"/><path class="cls-3" d="M5.57,149.32c3.13,4.45,38.73,92.26,104.75,125.92.72,5.08,0,5.58,0,5.58l-29-1.12S33,243.53,20.06,219.53A363,363,0,0,1,0,176.07S2.44,144.87,5.57,149.32Z"/><path class="cls-4" d="M296.42,115.89l18.94-36.77L355.48,88s-14.47,88.46-15.6,94.72c-26.36-13.64-56.4-13-74.66-7.8-.33-10.73,0-15.6,0-15.6l-10-11.14,11.14-11.14V122.58Z"/><path class="cls-4" d="M355.48,195,366.62,136l29,14.49,31.21-13.37,29,35.65L430.14,205l11.14,40.12,42.35,8.91-1.12,41.23-41.23,10L429,337.65l22.29,34.54-14.48,16.72-61.29-75.78s17.75-36.37,12.16-65.47S355.48,195,355.48,195Z"/><path class="cls-4" d="M147.09,274.13l50.15-15.6s4.93-24.72,15.6-40.12a23,23,0,0,1,0-6.68l-12.26-1.12L188.33,195l-6.69,6.69h-8.92L166,234,146,251.84Z"/><path class="cls-4" d="M199.47,271.9l-86.92,35.66,13.37,34.55,35.66,1.11,29,34.54-10,40.12,40.12,22.29L248.5,409l40.12,7.8L302,454.65,352.13,448,351,417.88s-39.3-52.08-39-52.37C196.72,356,199.47,271.9,199.47,271.9Z"/><path class="cls-4" d="M295.3,343.22s-53.94-1.4-71.32-40.12-3.34-71.32-3.34-71.32L245.16,263v12.25l12.25,15.61,13.38,4.45,7.8,11.15v16.71Z"/><path class="cls-4" d="M274.13,192.78l22.29,27.86,12.25,1.12L326.5,244l-1.11,13.37,6.69,11.15h13.37l21.17,26.74s16-41.05-16.71-80.23S274.13,192.78,274.13,192.78Z"/></g></g></svg>